<?xml version="1.0" standalone="no"?><!DOCTYPE svg PUBLIC "-//W3C//DTD SVG 1.1//EN" "http://www.w3.org/Graphics/SVG/1.1/DTD/svg11.dtd"><svg t="1507373595125" class="icon" style="" viewBox="0 0 1024 1024" version="1.1" xmlns="http://www.w3.org/2000/svg" p-id="5693" xmlns:xlink="http://www.w3.org/1999/xlink" width="200" height="200"><defs><style type="text/css"></style></defs><path d="M890.885 564.336v451.993h-154.686v-451.993c0-70.655-18.427-123.056-56.325-160.225-53.952-52.931-133.382-61.15-157.547-62.356h-111.138l63.709 161.299c2.148 5.409 0.411 11.573-4.215 15.072-4.64 3.514-11.055 3.487-15.669-0.066l-316.846-243.606c-3.168-2.465-5.050-6.218-5.050-10.247 0-4.017 1.882-7.794 5.050-10.234l316.846-243.606c2.333-1.789 5.090-2.663 7.887-2.663 2.731 0 5.461 0.849 7.781 2.598 4.64 3.487 6.364 9.664 4.215 15.086l-63.709 161.286 82.003 0.238c0 0 7.861 0.438 18.757 1.365l-0.039-1.379c6.947-0.147 165.516-1.882 276.295 106.79 68.15 66.823 102.681 157.881 102.681 270.649z" p-id="5694" fill="#707070"></path></svg>